
<svg width="25px" height="25px" viewBox="0 0 25 25" version="1.1" xmlns="http://www.w3.org/2000/svg" xmlns:xlink="http://www.w3.org/1999/xlink">
    <g id="Forms" stroke="none" stroke-width="1" fill="none" fill-rule="evenodd">
        <g id="Input-&amp;-Textarea" transform="translate(-254.000000, -516.000000)" fill-rule="nonzero">
            <g id="Add-Button" transform="translate(254.000000, 516.000000)">
                <path d="M12,0 C18.627417,-1.21743675e-15 24,5.372583 24,12 C24,18.627417 18.627417,24 12,24 C5.372583,24 8.11624501e-16,18.627417 0,12 C-8.11624501e-16,5.372583 5.372583,1.21743675e-15 12,0 Z" id="Rectangle" fill="#007AFF"></path>
                <g id="Icons-/-Plus" transform="translate(6.000000, 6.000000)" fill="#FFFFFF">
                    <path d="M6,0 C6.47338693,-8.6959768e-17 6.85714286,0.383755929 6.85714286,0.857142857 L6.857,5.142 L11.1428571,5.14285714 C11.6162441,5.14285714 12,5.52661307 12,6 C12,6.47338693 11.6162441,6.85714286 11.1428571,6.85714286 L6.857,6.857 L6.85714286,11.1428571 C6.85714286,11.6162441 6.47338693,12 6,12 C5.52661307,12 5.14285714,11.6162441 5.14285714,11.1428571 L5.142,6.857 L0.857142857,6.85714286 C0.383755929,6.85714286 1.77635684e-15,6.47338693 0,6 C0,5.52661307 0.383755929,5.14285714 0.857142857,5.14285714 L5.142,5.142 L5.14285714,0.857142857 C5.14285714,0.383755929 5.52661307,8.6959768e-17 6,0 Z" id="Combined-Shape"></path>
                </g>
            </g>
        </g>
    </g>
</svg>