
<svg width="12px" height="14px" viewBox="0 0 12 14" version="1.1" xmlns="http://www.w3.org/2000/svg" xmlns:xlink="http://www.w3.org/1999/xlink">
    <g id="Icons" stroke="none" stroke-width="1" fill="none" fill-rule="evenodd">
        <g id="Icons-/-Guide" transform="translate(-3.000000, -2.000000)" fill="#333333" fill-rule="nonzero">
            <g id="icon" transform="translate(3.500000, 2.000000)">
                <path d="M1.64882583,0 C0.738124364,0 0,0.783413388 0,1.74999268 L0,12.2499487 C0,12.4052062 0.0583629942,12.5540478 0.162091616,12.663521 C0.356012055,13.4008425 0.896059289,14 1.64882583,14 L10.4425636,14 C10.6407722,14.0029166 10.8251359,13.8923896 10.9250582,13.7106835 C11.0249806,13.5289773 11.0249806,13.3042437 10.9250582,13.1225376 C10.8251359,12.9408314 10.6407722,12.8303045 10.4425636,12.8332796 L1.64882583,12.8332796 C1.33828037,12.8332796 1.09921722,12.5795482 1.09921722,12.2499487 C1.09921722,11.9203493 1.33828037,11.6666178 1.64882583,11.6666178 L9.89295498,11.6666178 C10.5002725,11.6666178 10.9921722,11.1445367 10.9921722,10.4999561 L10.9921722,1.16666178 C10.9921722,0.522081149 10.5002725,0 9.89295498,0 L1.64882583,0 Z M3.84726027,3.49998535 L7.69452054,3.49998535 C7.9979045,3.49998535 8.24412915,3.76131759 8.24412915,4.08331625 C8.24412915,4.4053149 7.9979045,4.66664714 7.69452054,4.66664714 L3.84726027,4.66664714 C3.54387632,4.66664714 3.29765166,4.4053149 3.29765166,4.08331625 C3.29765166,3.76131759 3.54387632,3.49998535 3.84726027,3.49998535 Z" id="Shape"></path>
            </g>
        </g>
    </g>
</svg>