
<svg width="16px" height="16px" viewBox="0 0 16 16" version="1.1" xmlns="http://www.w3.org/2000/svg" xmlns:xlink="http://www.w3.org/1999/xlink">
    <g id="Icons" stroke="none" stroke-width="1" fill="none" fill-rule="evenodd">
        <g id="Icons-/-Control" transform="translate(-1.000000, -1.000000)" fill="#333333" fill-rule="nonzero">
            <path d="M8.75568145,1 C8.58040945,1 8.43114764,1.12381818 8.39914764,1.29545455 L8.26420451,2.01420451 C8.20820458,2.31311367 7.9700568,2.53338618 7.67187498,2.59374982 C7.42387498,2.64393164 7.18027273,2.70769309 6.94318182,2.78551127 C6.65518182,2.88005673 6.33913636,2.80936364 6.14204545,2.57954545 L5.66903411,2.02698865 C5.55485229,1.89462502 5.3615,1.86301135 5.21022727,1.95028407 L4.78977273,2.19318182 C4.63777273,2.28045455 4.56965905,2.46417018 4.62784087,2.62926109 L4.87215913,3.32102255 C4.97252276,3.607568 4.87674996,3.91571564 4.65056815,4.11789745 C4.46365905,4.28517018 4.28586364,4.46223855 4.11931818,4.64914764 C3.91713636,4.87532945 3.60898865,4.97110255 3.3224432,4.87073891 L2.62926138,4.62784073 C2.46417047,4.56965891 2.28187498,4.63849964 2.19460225,4.78977309 L1.95028407,5.21022691 C1.86228407,5.36222691 1.89531818,5.55485236 2.02840909,5.66903418 L2.58096589,6.14204509 C2.81078407,6.33913673 2.88147724,6.65518182 2.78693178,6.94318182 C2.7091136,7.18027273 2.64535229,7.42387491 2.59517047,7.67187491 C2.53480684,7.97005673 2.31453411,8.20820436 2.01562502,8.26420436 L1.296875,8.39914764 C1.12451137,8.43114764 1,8.58040945 1,8.75568145 L1,9.24431855 C1,9.41959055 1.12381818,9.56885236 1.29545455,9.60085236 L2.01420451,9.73579564 C2.3131136,9.79179564 2.53338633,10.0299433 2.59374996,10.3281251 C2.64393185,10.5768524 2.70769316,10.8197273 2.78551135,11.0568182 C2.8800568,11.3448182 2.80936364,11.6608633 2.57954545,11.8579549 L2.02698865,12.3309658 C1.89462502,12.4451476 1.86301135,12.6385004 1.95028407,12.7897731 L2.19318182,13.2102269 C2.28045455,13.3622269 2.46417047,13.4303411 2.62926138,13.3721593 L3.32102269,13.1278407 C3.60756822,13.0274771 3.91571593,13.1232502 4.11789775,13.349432 C4.28517047,13.5363411 4.46223862,13.7141367 4.64914771,13.8806822 C4.87532953,14.0828633 4.97110225,14.3910116 4.87073862,14.6775571 L4.62784087,15.3707389 C4.56965905,15.5358298 4.6385,15.7181251 4.78977273,15.8053978 L5.21022727,16.0497156 C5.36222727,16.1377156 5.55485229,16.1046815 5.66903411,15.9715913 L6.14204545,15.4190342 C6.33913636,15.189216 6.65518182,15.1185229 6.94318182,15.2130684 C7.18027273,15.2908865 7.42387498,15.354648 7.67187498,15.4048298 C7.9700568,15.4651935 8.20820458,15.6854662 8.26420451,15.9843753 L8.39914764,16.7031251 C8.43114764,16.8754887 8.58040945,17 8.75568145,17 L9.24431855,17 C9.41959127,17 9.56888655,16.8754545 9.599432,16.7045455 L9.73437527,15.9857956 C9.79037527,15.6868865 10.0285229,15.4666138 10.3267047,15.4062502 C10.575432,15.3560684 10.8183069,15.2923069 11.0553978,15.2144887 C11.3433978,15.1199433 11.6594429,15.1906364 11.8565338,15.4204545 L12.3295455,15.9730116 C12.4437273,16.1053753 12.6356589,16.1384095 12.7869316,16.051136 L13.2088065,15.8068182 C13.3608065,15.7195455 13.4289207,15.5372502 13.3707389,15.3721593 L13.1278407,14.6789775 C13.0274771,14.392432 13.1232502,14.0842844 13.349432,13.8821025 C13.5363411,13.7148298 13.7141367,13.5377615 13.8806822,13.3508524 C14.0828633,13.1246705 14.3917389,13.0288975 14.6775571,13.1292611 L15.3707389,13.3721593 C15.5358298,13.4303411 15.7181251,13.3614996 15.8053978,13.2102269 L16.0497156,12.7897731 C16.1377156,12.6377724 16.1046815,12.4451476 15.9715913,12.3309658 L15.4190342,11.8579549 C15.189216,11.660864 15.1185229,11.3448182 15.2130684,11.0568182 C15.2908865,10.8197273 15.354648,10.5761251 15.4048298,10.3281251 C15.4651935,10.0299433 15.6854662,9.79179564 15.9843753,9.73579564 L16.7031251,9.60085236 C16.8754887,9.56885236 17,9.41959055 17,9.24431855 L17,8.75568145 C17,8.58040945 16.8754545,8.43184073 16.7045455,8.400568 L15.9857956,8.26562473 C15.6868865,8.20962473 15.4666138,7.97005673 15.4062502,7.67187491 C15.3560684,7.42387491 15.2923069,7.18027273 15.2144887,6.94318182 C15.1199433,6.65518182 15.1906364,6.34055709 15.4204545,6.14346618 L15.9730116,5.67045455 C16.1053753,5.55627273 16.1384095,5.36292073 16.051136,5.211648 L15.8068182,4.78977309 C15.7195455,4.63777236 15.5372502,4.56965891 15.3721593,4.62784073 L14.6789775,4.87215927 C14.392432,4.97252291 14.0842844,4.87674982 13.8821025,4.650568 C13.7148298,4.46365891 13.5377615,4.28586327 13.3508524,4.11931782 C13.1246705,3.91713673 13.0288975,3.60898836 13.1292611,3.32244291 L13.3721593,2.62926109 C13.4303411,2.46417018 13.3614996,2.28187498 13.2102269,2.19460225 L12.7897731,1.95028407 C12.6377731,1.86228407 12.4451476,1.89531818 12.3309658,2.02840909 L11.8579549,2.58096582 C11.6608633,2.810784 11.3448182,2.88147709 11.0568182,2.78693164 C10.8197273,2.70911345 10.5761251,2.645352 10.3281251,2.59517018 C10.0299433,2.53480655 9.79179564,2.31453411 9.73579564,2.01562502 L9.60085236,1.29687498 C9.56885236,1.12451135 9.41959055,1 9.24431855,1 L8.75568145,1 Z M9,4 C11.7616667,4 14,6.23833333 14,9 C14,11.7616667 11.7616667,14 9,14 C6.23833333,14 4,11.7616667 4,9 C4,6.23833333 6.23833333,4 9,4 Z M9,7 C7.895,7 7,7.895 7,9 C7,10.105 7.895,11 9,11 C10.105,11 11,10.105 11,9 C11,7.895 10.105,7 9,7 Z" id="Shape"></path>
        </g>
    </g>
</svg>