
<svg width="16px" height="16px" viewBox="0 0 16 16" version="1.1" xmlns="http://www.w3.org/2000/svg" xmlns:xlink="http://www.w3.org/1999/xlink">
    <g id="Icons" stroke="none" stroke-width="1" fill="none" fill-rule="evenodd">
        <g id="Icons-/-Exit" transform="translate(-1.000000, -1.000000)" fill="#333333" fill-rule="nonzero">
            <g id="Exit-2" transform="translate(1.000000, 1.500000)">
                <path d="M7.67610959,0 C3.44435583,0 0,3.3653335 0,7.5 C0,11.6346663 3.44435583,15 7.67610959,15 C9.310432,15 10.8212036,14.4883906 12.0601379,13.6364744 C12.3492504,13.4379296 12.4188906,13.0479823 12.2156837,12.7655028 C12.0124768,12.4830233 11.6133731,12.4149808 11.3242606,12.6135256 C10.2872285,13.3266094 9.03802862,13.75 7.67610959,13.75 C4.13580239,13.75 1.2793516,10.9590838 1.2793516,7.5 C1.2793516,4.0409165 4.13580239,1.25 7.67610959,1.25 C9.03802862,1.25 10.2872285,1.67339044 11.3242606,2.38647463 C11.5112837,2.51491061 11.7542289,2.53610384 11.961581,2.44207103 C12.1689332,2.34803821 12.3091906,2.15306518 12.3295197,1.93059639 C12.3498487,1.7081276 12.247161,1.49196135 12.0601379,1.36352538 C10.8212036,0.511609563 9.310432,0 7.67610959,0 Z M12.7872689,4.3688965 C12.5269702,4.3689635 12.2926661,4.52311889 12.1947178,4.75875297 C12.0967695,4.99438705 12.1547088,5.26451192 12.3412454,5.44189437 L13.8080021,6.875 L7.03643379,6.875 C6.80574372,6.87181232 6.59116739,6.99023456 6.47487026,7.18492053 C6.35857314,7.3796065 6.35857314,7.6203935 6.47487026,7.81507947 C6.59116739,8.00976544 6.80574372,8.12818768 7.03643379,8.125 L13.8080021,8.125 L12.3412454,9.55810562 C12.174136,9.71486598 12.1068198,9.9476475 12.1652585,10.1666738 C12.2236973,10.3857001 12.3987592,10.5567456 12.6229285,10.6138436 C12.8470978,10.6709416 13.0853453,10.6051699 13.2457866,10.4418944 L15.7482687,7.99682625 C15.9071265,7.87842458 16.0002447,7.69430507 16,7.49908717 C15.9997544,7.30386927 15.9061741,7.11997357 15.7470194,7.00195312 L13.2457866,4.55810562 C13.1253541,4.43714758 12.9599825,4.3688965 12.7872689,4.3688965 Z" id="Exit"></path>
            </g>
        </g>
    </g>
</svg>