
<svg width="16px" height="16px" viewBox="0 0 16 16" version="1.1" xmlns="http://www.w3.org/2000/svg" xmlns:xlink="http://www.w3.org/1999/xlink">
    <g id="Icons" stroke="none" stroke-width="1" fill="none" fill-rule="evenodd">
        <g id="Icons-/-Profile" transform="translate(-1.000000, -1.000000)" fill="#333333" fill-rule="nonzero">
            <g id="icon" transform="translate(1.000000, 1.000000)">
                <path d="M8,0 C3.582,0 0,3.582 0,8 C0,12.418 3.582,16 8,16 C12.418,16 16,12.418 16,8 C16,3.582 12.418,0 8,0 Z M3.33333333,12.7606667 C4.11133333,10.4273333 6.44466667,11.338 6.83333333,10.074 L6.83333333,9.23133333 C6.65866667,9.13733333 6.158,8.492 6.10533333,7.988 C5.96733333,7.976 5.75133333,7.83933333 5.68733333,7.29866667 C5.65333333,7.00866667 5.78933333,6.84533333 5.87133333,6.794 C5.87133333,6.794 5.666,6.326 5.666,5.86133333 C5.66666667,4.48 6.35066667,3.33333333 8,3.33333333 C8.89066667,3.33333333 9.16666667,3.96466667 9.16666667,3.96466667 C9.96266667,3.96466667 10.3333333,4.83733333 10.3333333,5.86066667 C10.3333333,6.37066667 10.128,6.79333333 10.128,6.79333333 C10.2106667,6.84466667 10.3466667,7.008 10.3126667,7.298 C10.2486667,7.83866667 10.0326667,7.97533333 9.89466667,7.98733333 C9.842,8.49133333 9.342,9.13666667 9.16666667,9.23066667 L9.16666667,10.0733333 C9.55533333,11.338 11.8886667,10.4273333 12.6666667,12.7606667 C12.6666667,12.7606667 10.9213333,14.6666667 8,14.6666667 C5.062,14.6666667 3.33333333,12.7606667 3.33333333,12.7606667 Z" id="Shape"></path>
            </g>
        </g>
    </g>
</svg>