
<svg width="24px" height="24px" viewBox="0 0 24 24" version="1.1" xmlns="http://www.w3.org/2000/svg" xmlns:xlink="http://www.w3.org/1999/xlink">
    <g id="Icons" stroke="none" stroke-width="1" fill="none" fill-rule="evenodd">
        <g id="Icons-/-Winner" fill="#007AFF" fill-rule="nonzero">
            <path d="M12,0 C18.627417,0 24,5.372583 24,12 C24,18.627417 18.627417,24 12,24 C5.372583,24 0,18.627417 0,12 C0,5.372583 5.372583,0 12,0 Z M13.1538462,14.9166423 L10.8461538,14.9166423 C10.4211538,14.9166423 10.0769231,15.2895558 10.0769231,15.7499686 L10.0769231,16.1666318 C9.93821696,16.1645067 9.80919948,16.2434542 9.73927395,16.3732438 C9.66934843,16.5030333 9.66934843,16.6635566 9.73927395,16.7933462 C9.80919948,16.9231358 9.93821696,17.0020833 10.0769231,16.9999582 L13.9230769,16.9999582 C14.061783,17.0020833 14.1908005,16.9231358 14.260726,16.7933462 C14.3306516,16.6635566 14.3306516,16.5030333 14.260726,16.3732438 C14.1908005,16.2434542 14.061783,16.1645067 13.9230769,16.1666318 L13.9230769,15.7499686 C13.9230769,15.2895558 13.5788462,14.9166423 13.1538462,14.9166423 Z M15.0769231,7 L8.92307692,7 C8.7843708,6.99791674 8.65535332,7.07686424 8.5854278,7.2066538 C8.51550228,7.33644337 8.51550228,7.49696669 8.5854278,7.62675625 C8.65535332,7.75654581 8.7843708,7.83549331 8.92307692,7.83336821 L8.92307692,8.82212947 C8.75373288,8.72837363 8.56383377,8.66669456 8.34615385,8.66669456 C7.60723527,8.66669456 7,9.32452727 7,10.1250157 C7,10.6880068 7.33891765,11.1257911 7.74068508,11.4848676 C8.14245254,11.8439442 8.64512354,12.1461125 9.14242788,12.402015 C9.58336812,12.6289135 10.0090735,12.8097453 10.3608773,12.9496991 C10.82762,13.6355705 11.2307692,14.0833159 11.2307692,14.0833159 L12.7692308,14.0833159 L12.7899272,14.059933 C12.8778678,13.9596838 13.2346124,13.544121 13.6391227,12.9496991 C13.9909265,12.8097453 14.4166319,12.6289135 14.8575723,12.402015 C15.3548765,12.1461125 15.8575473,11.8439442 16.259315,11.4848676 C16.6610823,11.1257911 17,10.6880068 17,10.1250157 C17,9.32452727 16.3927646,8.66669456 15.6538462,8.66669456 C15.4361662,8.66669456 15.2462673,8.72837363 15.0769231,8.82212947 L15.0769231,7.83336821 C15.2156292,7.83549331 15.3446467,7.75654581 15.4145722,7.62675625 C15.4844977,7.49696669 15.4844977,7.33644337 15.4145722,7.2066538 C15.3446467,7.07686424 15.2156292,6.99791674 15.0769231,7 Z M8.34615385,9.50002092 C8.62179488,9.50002092 8.85826719,9.76175607 9.04477162,10.1209466 C9.04792204,10.127014 9.04994081,10.1327781 9.05303485,10.1388502 C9.18090446,10.6965713 9.39117827,11.2359072 9.63596754,11.7273785 C9.58072915,11.7001367 9.52831638,11.6785548 9.47295673,11.6500679 C9.00872262,11.4111828 8.54985515,11.1274186 8.23046877,10.8419693 C7.91108235,10.55652 7.76923077,10.2911851 7.76923077,10.1250157 C7.76923077,9.77468042 8.02276473,9.50002092 8.34615385,9.50002092 Z M15.6538462,9.50002092 C15.9772354,9.50002092 16.2307692,9.77468042 16.2307692,10.1250157 C16.2307692,10.2911851 16.0889177,10.55652 15.7695312,10.8419693 C15.450145,11.1274186 14.9912773,11.4111828 14.5270431,11.6500679 C14.4716835,11.6785548 14.4192708,11.7001367 14.3640323,11.7273785 C14.6088219,11.2359072 14.8190954,10.6965713 14.946965,10.1388502 C14.9500592,10.1327781 14.9520781,10.127014 14.9552285,10.1209466 C15.1417327,9.76175607 15.378205,9.50002092 15.6538462,9.50002092 Z" id="Winner"></path>
        </g>
    </g>
</svg>