<svg xmlns="http://www.w3.org/2000/svg" x="0px" y="0px"
width="130" height="130"
viewBox="0 0 175 175"
style=" fill:#000000;"><g fill="none" fill-rule="nonzero" stroke="none" stroke-width="1" stroke-linecap="butt" stroke-linejoin="miter" stroke-miterlimit="10" stroke-dasharray="" stroke-dashoffset="0" font-family="none" font-weight="none" font-size="none" text-anchor="none" style="mix-blend-mode: normal"><path d="M0,172v-172h172v172z" fill="none"></path><g fill="#dbdbdb"><path d="M70.15495,17.2c-4.34587,0 -8.31369,2.45082 -10.25729,6.33802l-2.26198,4.52396c-1.9436,3.88147 -5.91716,6.33802 -10.25729,6.33802h-18.71172c-6.33533,0 -11.46667,5.13133 -11.46667,11.46667v86c0,6.33533 5.13133,11.46667 11.46667,11.46667h114.66667c6.33533,0 11.46667,-5.13133 11.46667,-11.46667v-86c0,-6.33533 -5.13133,-11.46667 -11.46667,-11.46667h-18.71172c-4.34587,0 -8.31369,-2.45082 -10.25729,-6.33802l-2.26198,-4.52396c-1.9436,-3.88147 -5.91716,-6.33802 -10.25729,-6.33802zM34.4,22.93333c-3.1648,0 -5.73333,2.56853 -5.73333,5.73333h17.2c0,-3.1648 -2.56853,-5.73333 -5.73333,-5.73333zM86,45.86667c22.13067,0 40.13333,18.00267 40.13333,40.13333c0,22.13067 -18.00267,40.13333 -40.13333,40.13333c-22.13067,0 -40.13333,-18.00267 -40.13333,-40.13333c0,-22.13067 18.00267,-40.13333 40.13333,-40.13333zM137.6,45.86667c3.1648,0 5.73333,2.56853 5.73333,5.73333c0,3.1648 -2.56853,5.73333 -5.73333,5.73333c-3.1648,0 -5.73333,-2.56853 -5.73333,-5.73333c0,-3.1648 2.56853,-5.73333 5.73333,-5.73333zM86,57.33333c-15.83216,0 -28.66667,12.8345 -28.66667,28.66667c0,15.83216 12.8345,28.66667 28.66667,28.66667c15.83216,0 28.66667,-12.8345 28.66667,-28.66667c0,-15.83216 -12.8345,-28.66667 -28.66667,-28.66667z"></path></g></g></svg>