<svg width="364px" height="14px" viewBox="0 0 364 14" version="1.1" xmlns="http://www.w3.org/2000/svg" xmlns:xlink="http://www.w3.org/1999/xlink">
    <g id="Shop" stroke="none" stroke-width="1" fill="none" fill-rule="evenodd">
        <g id="Shop-Create" transform="translate(-863.000000, -54.000000)">
            <g id="Preview" transform="translate(648.000000, 0.000000)">
                <g id="Group-3-Copy" transform="translate(209.000000, 50.000000)">
                    <g id="Components-/-Bars-/-Statusbar-/-Light">
                        <rect id="Background" fill-rule="nonzero" x="0" y="0" width="375" height="20"></rect>
                        <g id="Bars/Status/Black">
                            <g id="Pin-Right" stroke-width="1" fill-rule="evenodd" transform="translate(298.000000, 3.000000)">
                                <g id="Battery" transform="translate(9.000000, 0.000000)">
                                    <g transform="translate(36.000000, 1.500000)">
                                        <path d="M3.2048565,0.5 C2.26431807,0.5 1.89540921,0.571239588 1.5147423,0.774822479 C1.19446913,0.946106445 0.946106445,1.19446913 0.774822479,1.5147423 C0.571239588,1.89540921 0.5,2.26431807 0.5,3.2048565 L0.5,8.2951435 C0.5,9.23568193 0.571239588,9.60459079 0.774822479,9.9852577 C0.946106445,10.3055309 1.19446913,10.5538936 1.5147423,10.7251775 C1.89540921,10.9287604 2.26431807,11 3.2048565,11 L22.0738202,11 C22.8614775,11 23.5,10.3614775 23.5,9.57382015 L23.5,3.2048565 C23.5,2.26431807 23.4287604,1.89540921 23.2251775,1.5147423 C23.0538936,1.19446913 22.8055309,0.946106445 22.4852577,0.774822479 C22.1045908,0.571239588 21.7356819,0.5 20.7951435,0.5 L3.2048565,0.5 Z" id="Border" stroke="#000000" opacity="0.400000006"></path>
                                        <path d="M25.0004626,4.00011912 C25.8628415,4.22230136 26.5,5.00523813 26.5,5.93699126 C26.5,6.86874438 25.8628415,7.65168116 25.0004626,7.8738634 Z" id="Nub" fill="#000000" opacity="0.400000006"></path>
                                        <path d="M2.5,2 L21.5,2 C21.7761424,2 22,2.22385763 22,2.5 L22,9 C22,9.27614237 21.7761424,9.5 21.5,9.5 L2.5,9.5 C2.22385763,9.5 2,9.27614237 2,9 L2,2.5 C2,2.22385763 2.22385763,2 2.5,2 Z" id="Charge" fill="#000000"></path>
                                    </g>
                                    <text id="100%" font-family="Helvetica" font-size="12" font-weight="normal" fill="#030303">
                                        <tspan x="2.30859375" y="11.5">100%</tspan>
                                    </text>
                                </g>
                                <polyline id="Bluetooth" stroke="#000000" points="0.5 4 6.5 9.5 3.5 12 3.5 2 6.5 4.5 0.5 10"></polyline>
                            </g>
                            <text id="Time" font-family="Helvetica" font-size="12" font-weight="normal" fill="#030303">
                                <tspan x="175.822266" y="14.5">9:41</tspan>
                            </text>
                            <g id="Overrides/Status-Bar/Signal---Black" fill-rule="evenodd" stroke-width="1">
                                <g id="Group" transform="translate(6.000000, 3.000000)">
                                    <text id="Carrier" font-family="Helvetica" font-size="12" font-weight="normal" fill="#030303">
                                        <tspan x="20" y="11.5">Wylsacom</tspan>
                                    </text>
                                    <path d="M2,7.5 C2.55228475,7.5 3,7.94771525 3,8.5 L3,11 C3,11.5522847 2.55228475,12 2,12 L1,12 C0.44771525,12 6.76353751e-17,11.5522847 0,11 L0,8.5 C-6.76353751e-17,7.94771525 0.44771525,7.5 1,7.5 L2,7.5 Z M6.5,6 C7.05228475,6 7.5,6.44771525 7.5,7 L7.5,11 C7.5,11.5522847 7.05228475,12 6.5,12 L5.5,12 C4.94771525,12 4.5,11.5522847 4.5,11 L4.5,7 C4.5,6.44771525 4.94771525,6 5.5,6 L6.5,6 Z M11,4 C11.5522847,4 12,4.44771525 12,5 L12,11 C12,11.5522847 11.5522847,12 11,12 L10,12 C9.44771525,12 9,11.5522847 9,11 L9,5 C9,4.44771525 9.44771525,4 10,4 L11,4 Z M15.5,2 C16.0522847,2 16.5,2.44771525 16.5,3 L16.5,11 C16.5,11.5522847 16.0522847,12 15.5,12 L14.5,12 C13.9477153,12 13.5,11.5522847 13.5,11 L13.5,3 C13.5,2.44771525 13.9477153,2 14.5,2 L15.5,2 Z" id="Mobile-Signal" fill="#000000"></path>
                                    <path d="M81.3295628,4.82956276 C83.2063161,3.07441257 85.7276868,2 88.5,2 C91.2723132,2 93.7936839,3.07441257 95.6704372,4.82956276 L94.2552384,6.24476162 C92.7412564,4.85107918 90.7200183,4 88.5,4 C86.2799817,4 84.2587436,4.85107918 82.7447616,6.24476162 L81.3295628,4.82956276 L81.3295628,4.82956276 Z M83.8065309,7.30653087 C85.0481225,6.18377399 86.6942093,5.5 88.5,5.5 C90.3057907,5.5 91.9518775,6.18377399 93.1934691,7.30653087 L91.7767384,8.72326155 C90.8991992,7.96124278 89.7534641,7.5 88.5,7.5 C87.2465359,7.5 86.1008008,7.96124278 85.2232616,8.72326155 L83.8065309,7.30653087 Z M86.2877088,9.78770884 C86.890654,9.29532392 87.6608387,9 88.5,9 C89.3391613,9 90.109346,9.29532392 90.7122912,9.78770884 L88.5,12 L86.2877088,9.78770884 L86.2877088,9.78770884 Z" id="Wifi" fill="#000000"></path>
                                </g>
                            </g>
                        </g>
                    </g>
                </g>
            </g>
        </g>
    </g>
</svg>