
<svg width="334px" height="18px" viewBox="0 0 334 18" version="1.1" xmlns="http://www.w3.org/2000/svg" xmlns:xlink="http://www.w3.org/1999/xlink">
    <g id="Shop" stroke="none" stroke-width="1" fill="none" fill-rule="evenodd">
        <g id="Shop-Create" transform="translate(-877.000000, -89.000000)" fill-rule="nonzero">
            <g id="Preview" transform="translate(648.000000, 0.000000)">
                <g id="Group-3-Copy" transform="translate(209.000000, 50.000000)">
                    <g id="Components-/-Bars-/-Toolbar-/-Light" transform="translate(0.000000, 20.000000)">
                        <rect id="Container" x="0" y="0" width="375" height="56"></rect>
                        <g id="Components-/-Buttons-/-Bars-/-btnIcon" transform="translate(335.000000, 16.000000)">
                            <rect id="Container" x="0" y="0" width="24" height="24"></rect>
                            <g id="Icons-/-action" transform="translate(2.000000, 2.000000)" fill="#333333">
                                <path d="M10,1 C10.0434141,1 10.0859667,1.00368873 10.1273614,1.01076987 C10.2778452,1.02513692 10.4241221,1.0852075 10.5438205,1.18875529 L10.6282614,1.27453333 L13.5208056,4.72173333 C13.787057,5.03903932 13.745669,5.51210602 13.428363,5.77835737 C13.139903,6.02040404 12.7227151,6.00820335 12.4492082,5.76558796 L12.371739,5.68591474 L10.7497106,3.752 L10.75,8.999 L17,9 L17,9 L17,15.1541722 L17,15.1541722 C17,16.4914503 16.8607616,16.9763797 16.5993009,17.4652686 C16.3378403,17.9541574 15.9541574,18.3378403 15.4652686,18.5993009 C14.9763797,18.8607616 14.4914503,19 13.1541722,19 L6.8458278,19 C5.50854969,19 5.02362033,18.8607616 4.53473144,18.5993009 C4.04584256,18.3378403 3.66215969,17.9541574 3.40069906,17.4652686 C3.13923842,16.9763797 3,16.4914503 3,15.1541722 L3,9 L3,9 L9.25,8.999 L9.24971058,3.752 L7.62826137,5.68591474 C7.36201003,6.00322074 6.88894333,6.04460871 6.57163733,5.77835737 C6.25433133,5.51210602 6.21294336,5.03903932 6.47919471,4.72173333 L9.37173895,1.27453333 C9.50276999,1.11837662 9.68389062,1.02904581 9.87188468,1.01032182 C9.9135208,1.00373329 9.95632442,1 10,1 Z M15.5,9 L10.75,9 L10.75,13.25 C10.75,13.6642136 10.4142136,14 10,14 C9.58578644,14 9.25,13.6642136 9.25,13.25 L9.25,9 L4.5,9 L4.5,15.1541722 C4.5,16.1469501 4.55838239,16.4492789 4.72341885,16.7578703 C4.84507979,16.9853564 5.01464355,17.1549202 5.24212973,17.2765811 C5.55072108,17.4416176 5.85304992,17.5 6.8458278,17.5 L13.1541722,17.5 C14.1469501,17.5 14.4492789,17.4416176 14.7578703,17.2765811 C14.9853564,17.1549202 15.1549202,16.9853564 15.2765811,16.7578703 C15.4416176,16.4492789 15.5,16.1469501 15.5,15.1541722 L15.5,9 Z" id="actionLight"></path>
                            </g>
                        </g>
                        <g id="Components-/-Buttons-/-Bars-/-btnIconBack" transform="translate(16.000000, 16.000000)">
                            <rect id="Container" x="0" y="0" width="24" height="24"></rect>
                            <g id="Icons-/-arrowBack" transform="translate(4.000000, 4.000000)" fill="#333333">
                                <path d="M8.76740833,0.22675604 C9.07753056,0.529097428 9.07753056,1.01928967 8.76740833,1.32163106 L2.68601032,7.25 L19.2083333,7.25 C19.6455588,7.25 20,7.58578644 20,8 C20,8.41421356 19.6455588,8.75 19.2083333,8.75 L2.68601032,8.75 L8.76740833,14.6783689 C9.07753056,14.9807103 9.07753056,15.4709026 8.76740833,15.773244 C8.45728609,16.0755853 7.95447861,16.0755853 7.64435638,15.773244 L1.03152482e-05,8.0039584 L7.64435638,0.22675604 C7.95447861,-0.0755853468 8.45728609,-0.0755853468 8.76740833,0.22675604 Z" id="arrowBack"></path>
                            </g>
                        </g>
                    </g>
                </g>
            </g>
        </g>
    </g>
</svg>